HIERARCHY
ROOT Hips
{
 OFFSET 0.000000 0.000000 0.000000
 CHANNELS 6 Xposition Yposition Zposition Yrotation Xrotation Zrotation
 JOINT Chest
 {
  OFFSET 0.000000 14.374500 -0.011500
  CHANNELS 3 Yrotation Xrotation Zrotation
  JOINT Chest2
  {
   OFFSET 0.000000 9.203400 0.023400
   CHANNELS 3 Yrotation Xrotation Zrotation
   JOINT Chest3
   {
    OFFSET 0.000000 9.162700 0.000000
    CHANNELS 3 Yrotation Xrotation Zrotation
    JOINT Chest4
    {
     OFFSET 0.000000 9.153300 0.000000
     CHANNELS 3 Yrotation Xrotation Zrotation
     JOINT Neck
     {
      OFFSET 0.000000 13.353600 0.000000
      CHANNELS 3 Yrotation Xrotation Zrotation
      JOINT Head
      {
       OFFSET 0.000000 8.573800 0.049400
       CHANNELS 3 Yrotation Xrotation Zrotation
       End Site
       {
        OFFSET 0.000000 16.219200 0.026100
       }
      }
     }
     JOINT RightCollar
     {
      OFFSET -2.497100 8.876100 0.000000
      CHANNELS 3 Yrotation Xrotation Zrotation
      JOINT RightShoulder
      {
       OFFSET -12.289200 0.000000 0.000000
       CHANNELS 3 Yrotation Xrotation Zrotation
       JOINT RightElbow
       {
        OFFSET 0.000000 -28.194900 0.000000
        CHANNELS 3 Yrotation Xrotation Zrotation
        JOINT RightWrist
        {
         OFFSET 0.000000 -23.009700 0.007900
         CHANNELS 3 Yrotation Xrotation Zrotation
         End Site
         {
          OFFSET 0.000000 -17.151500 0.000000
         }
        }
       }
      }
     }
     JOINT LeftCollar
     {
      OFFSET 2.497100 8.876100 0.000000
      CHANNELS 3 Yrotation Xrotation Zrotation
      JOINT LeftShoulder
      {
       OFFSET 12.289200 0.000000 0.000000
       CHANNELS 3 Yrotation Xrotation Zrotation
       JOINT LeftElbow
       {
        OFFSET 0.000000 -28.194900 0.000000
        CHANNELS 3 Yrotation Xrotation Zrotation
        JOINT LeftWrist
        {
         OFFSET 0.000000 -23.009700 0.007900
         CHANNELS 3 Yrotation Xrotation Zrotation
         End Site
         {
          OFFSET 0.000000 -17.151500 0.000000
         }
        }
       }
      }
     }
    }
   }
  }
 }
 JOINT RightHip
 {
  OFFSET -11.777600 0.056700 0.005700
  CHANNELS 3 Yrotation Xrotation Zrotation
  JOINT RightKnee
  {
   OFFSET 0.000000 -39.966000 -0.004200
   CHANNELS 3 Yrotation Xrotation Zrotation
   JOINT RightAnkle
   {
    OFFSET 0.000000 -41.981900 0.027400
    CHANNELS 3 Yrotation Xrotation Zrotation
    JOINT RightToe
    {
     OFFSET 0.000000 -9.910600 16.950100
     CHANNELS 3 Yrotation Xrotation Zrotation
     End Site
     {
      OFFSET 0.000000 -1.461000 6.191600
     }
    }
   }
  }
 }
 JOINT LeftHip
 {
  OFFSET 11.777600 0.056700 0.005700
  CHANNELS 3 Yrotation Xrotation Zrotation
  JOINT LeftKnee
  {
   OFFSET 0.000000 -39.966000 -0.004200
   CHANNELS 3 Yrotation Xrotation Zrotation
   JOINT LeftAnkle
   {
    OFFSET 0.000000 -41.981900 0.027400
    CHANNELS 3 Yrotation Xrotation Zrotation
    JOINT LeftToe
    {
     OFFSET 0.000000 -9.910600 16.950100
     CHANNELS 3 Yrotation Xrotation Zrotation
     End Site
     {
      OFFSET 0.000000 -1.461000 6.191600
     }
    }
   }
  }
 }
}
MOTION
Frames: 7
Frame Time: 0.008333
-7.031687 130.426206 92.703836 177.383915 -45.622990 -3.889107 5.189986 29.495318 4.327246 0.780684 5.720179 0.609716 1.272372 8.968784 0.979598 3.872916 23.557208 3.136507 6.283341 14.548583 -2.795728 7.483264 -10.236163 -4.508040 -0.640359 -0.870132 -1.740921 -3.950017 -1.797362 -2.512123 45.631132 -84.108329 -34.525058 18.475189 7.841030 0.752910 -7.689660 -4.484127 3.697667 5.328067 -0.141177 0.689955 38.138800 -67.129345 -61.555645 0.317210 -19.827234 16.653257 7.127595 -31.578709 0.514083 -85.313570 85.326348 -88.969566 2.995999 -26.626175 8.351533 -0.001201 -0.013178 -0.000702 -4.456830 -32.654494 -2.583566 146.863442 72.228420 157.549938 -4.425880 10.793592 -7.434988 0.000150 -0.013997 0.000088
-7.032684 130.423556 92.691375 177.414528 -45.534363 -3.914362 5.166933 29.418343 4.323187 0.815879 5.750790 0.595278 1.280243 8.924320 0.975155 3.862953 23.537016 3.158616 6.317518 14.659261 -2.781601 7.510173 -10.108876 -4.492784 -0.651512 -0.828703 -1.708876 -4.019154 -1.777179 -2.710603 53.734649 -84.086489 -42.423808 19.728324 8.872594 1.283841 -7.690372 -4.482214 3.694036 5.200545 -0.159174 0.834107 37.038682 -68.201290 -60.506195 -0.292923 -18.791457 15.960639 7.126486 -31.647026 0.519893 -85.674167 85.332377 -89.342354 2.964767 -26.631083 8.371511 -0.006518 -0.009217 -0.003811 -4.492768 -32.734833 -2.572547 146.975933 72.193563 157.663569 -4.419207 10.757622 -7.444290 0.003799 0.000314 0.002221
-7.032708 130.425070 92.675540 177.430852 -45.473093 -3.931963 5.184251 29.394307 4.330980 0.797602 5.717543 0.601240 1.295279 8.915733 0.969396 3.872021 23.511277 3.162039 6.348012 14.761666 -2.764235 7.539083 -9.997512 -4.480629 -0.653413 -0.787693 -1.663567 -4.060337 -1.741568 -2.935802 63.006902 -83.861064 -51.519380 21.003890 9.957121 1.849672 -7.683933 -4.476244 3.686328 5.040752 -0.169788 0.974538 35.704130 -69.391861 -59.232928 -0.913448 -17.724043 15.311611 7.176108 -31.680830 0.507343 -85.721962 85.320944 -89.346332 2.947218 -26.625175 8.375324 -0.004295 -0.005167 -0.002511 -4.527409 -32.786230 -2.560380 147.009593 72.176419 157.686184 -4.407388 10.767899 -7.457589 0.002046 -0.003342 0.001196
-7.031952 130.420548 92.666430 177.447110 -45.381720 -3.952767 5.218020 29.373238 4.348408 0.779848 5.662731 0.602920 1.285812 8.896006 0.973727 3.892350 23.484837 3.162319 6.376429 14.841256 -2.748990 7.573337 -9.917527 -4.478016 -0.666771 -0.761445 -1.633727 -4.054802 -1.682964 -3.161822 72.366224 -83.401017 -60.729183 22.271369 11.070757 2.464209 -7.692254 -4.436002 3.683180 4.858945 -0.213480 1.119348 34.163290 -70.684874 -57.755057 -1.584019 -16.601579 14.751843 7.194638 -31.755130 0.503677 -85.718136 85.306884 -89.316587 2.940671 -26.608078 8.372905 -0.002213 -0.001165 -0.001294 -4.576753 -32.874675 -2.531794 147.063618 72.159297 157.722018 -4.405976 10.775631 -7.464236 -0.000733 -0.001757 -0.000429
-7.034593 130.415693 92.657877 177.466508 -45.293313 -3.961014 5.215153 29.327294 4.345275 0.794206 5.665443 0.600413 1.263196 8.851488 0.974940 3.905223 23.481692 3.171317 6.414476 14.874509 -2.749946 7.616670 -9.879502 -4.488827 -0.668855 -0.764166 -1.613962 -4.018231 -1.609289 -3.402021 80.841653 -82.733117 -69.064919 23.574344 12.187955 3.132425 -7.694053 -4.397348 3.667911 4.648652 -0.278923 1.281998 32.359131 -72.077244 -56.019738 -2.325580 -15.433432 14.287444 7.199135 -31.832690 0.484662 -85.944312 85.317580 -89.538397 2.928223 -26.611179 8.375642 -0.003131 -0.005973 -0.001831 -4.608245 -32.962687 -2.522845 147.097508 72.150920 157.745800 -4.411365 10.792285 -7.473133 0.000915 -0.002062 0.000535
-7.036318 130.412862 92.648176 177.476825 -45.220477 -3.964794 5.220040 29.302580 4.346726 0.782377 5.624683 0.598533 1.292105 8.892802 0.981472 3.890067 23.451816 3.174357 6.458815 14.866459 -2.761241 7.670607 -9.885335 -4.513216 -0.651134 -0.795696 -1.575207 -3.962498 -1.517985 -3.671940 88.032318 -81.885616 -76.116181 24.946359 13.287702 3.875329 -7.701592 -4.376575 3.645386 4.421062 -0.345605 1.469128 30.216292 -73.540187 -53.952828 -3.137062 -14.251892 13.896571 7.210144 -31.894902 0.468777 -86.087678 85.323533 -89.672594 2.918278 -26.616834 8.377430 -0.003649 -0.014271 -0.002133 -4.630526 -33.034443 -2.512600 147.127691 72.145288 157.767841 -4.419694 10.809129 -7.478303 0.002367 -0.004742 0.001384
-7.034983 130.412391 92.637322 177.493794 -45.163482 -3.983831 5.221544 29.284449 4.358010 0.786287 5.627247 0.600765 1.294016 8.898145 0.982273 3.894725 23.445838 3.179324 6.507009 14.821947 -2.781436 7.731806 -9.929964 -4.548866 -0.636024 -0.849425 -1.528708 -3.864850 -1.416370 -3.953786 93.908839 -80.900699 -81.855088 26.350136 14.368744 4.677006 -7.717123 -4.398106 3.634769 4.179890 -0.389846 1.663266 27.660011 -75.028051 -51.479327 -4.023497 -13.077312 13.565008 7.201002 -31.931293 0.492257 -86.087284 85.307678 -89.671876 2.900376 -26.614014 8.378202 0.003292 -0.006550 0.001925 -4.656768 -33.089638 -2.494653 147.180884 72.137955 157.817864 -4.425724 10.824671 -7.480098 -0.000645 -0.000983 -0.000377
